<svg xmlns="http://www.w3.org/2000/svg" xmlns:xlink="http://www.w3.org/1999/xlink" width="500" zoomAndPan="magnify" viewBox="0 0 375 374.999991" height="500" preserveAspectRatio="xMidYMid meet" version="1.0"><path fill="#ef4136" d="M 183.636719 368.722656 C 183.636719 368.722656 72 374.757812 40.078125 261.269531 L 64.882812 279.433594 C 64.882812 279.433594 33.863281 209.078125 102.707031 125.097656 L 111.878906 166.714844 C 111.878906 166.714844 104.21875 36.054688 249.472656 4.941406 C 249.472656 4.941406 215.425781 69.335938 275.1875 186.507812 C 275.1875 186.507812 275.933594 158.421875 302.410156 150.085938 C 302.410156 150.085938 297.578125 169.449219 313.84375 196.945312 C 336.007812 234.425781 334.292969 281.714844 307.269531 315.878906 C 283.457031 345.972656 243.375 370.148438 183.636719 368.722656 Z M 183.636719 368.722656 " fill-opacity="1" fill-rule="nonzero"/><path fill="#000000" d="M 180.542969 373.308594 C 172.023438 373.308594 148.546875 372.25 122.183594 361.765625 C 92.109375 349.8125 52.730469 322.902344 35.714844 262.511719 C 35.195312 260.660156 35.894531 258.671875 37.5 257.5625 C 39.082031 256.457031 41.183594 256.476562 42.742188 257.628906 L 56.5 267.707031 C 50.695312 242.808594 46.425781 186.597656 99.179688 122.226562 C 100.289062 120.894531 102.050781 120.285156 103.722656 120.691406 C 105.417969 121.097656 106.703125 122.429688 107.089844 124.101562 L 109.753906 136.167969 C 111.8125 124.464844 115.492188 110.386719 122.046875 95.632812 C 137.320312 61.359375 171.617188 17.007812 248.527344 0.515625 C 250.242188 0.152344 252.003906 0.808594 253.066406 2.210938 C 254.128906 3.609375 254.285156 5.484375 253.449219 7.042969 C 253.132812 7.632812 223.582031 66.757812 273.445312 172.722656 C 277.242188 162.308594 285.445312 150.671875 301.054688 145.769531 C 302.613281 145.273438 304.332031 145.679688 305.507812 146.785156 C 306.703125 147.914062 307.203125 149.585938 306.792969 151.167969 C 306.75 151.328125 302.75 169.3125 317.730469 194.640625 C 341.429688 234.722656 338.71875 283.410156 310.816406 318.679688 C 290.414062 344.457031 251.800781 374.847656 183.703125 373.265625 C 183.253906 373.265625 182.167969 373.308594 180.542969 373.308594 Z M 183.660156 364.207031 C 183.703125 364.207031 183.726562 364.207031 183.773438 364.207031 C 248.253906 365.71875 284.609375 337.226562 303.746094 313.054688 C 329.320312 280.742188 331.761719 236.078125 309.957031 199.226562 C 299.113281 180.902344 297.167969 165.878906 297.238281 157.15625 C 280.585938 166.375 279.75 185.691406 279.703125 186.617188 C 279.636719 188.675781 278.191406 190.4375 276.179688 190.890625 C 274.148438 191.339844 272.113281 190.371094 271.164062 188.539062 C 222.632812 93.417969 234.765625 32.644531 242.019531 11.3125 C 187.816406 24.914062 150.265625 54.511719 130.339844 99.339844 C 114.726562 134.496094 116.375 166.148438 116.398438 166.464844 C 116.535156 168.816406 114.839844 170.871094 112.511719 171.210938 C 110.183594 171.546875 107.992188 170.011719 107.472656 167.707031 L 100.355469 135.421875 C 82.710938 158.828125 63.890625 192.96875 62.511719 233.386719 C 61.609375 260.273438 68.949219 277.445312 69.019531 277.625 C 69.832031 279.5 69.289062 281.691406 67.707031 282.957031 C 66.105469 284.222656 63.867188 284.292969 62.21875 283.070312 L 48.660156 273.152344 C 62.761719 311.605469 88.449219 338.515625 125.1875 353.222656 C 155.847656 365.492188 183.140625 364.226562 183.410156 364.207031 C 183.476562 364.207031 183.570312 364.207031 183.660156 364.207031 Z M 183.660156 364.207031 " fill-opacity="1" fill-rule="nonzero"/><path fill="#ffdb00" d="M 160.230469 347.371094 C 126.429688 335.058594 85.242188 303.246094 106.390625 215.945312 C 107.066406 213.121094 110.839844 212.511719 112.351562 214.996094 C 118.679688 225.503906 132.054688 244.910156 147.53125 251.351562 C 153.878906 253.992188 160.273438 247.667969 157.675781 241.296875 C 145.703125 212.015625 121.867188 131.625 180.859375 57.542969 C 182.890625 54.988281 187.003906 56.660156 186.617188 59.890625 C 183.386719 87.5 180.992188 158.804688 236.414062 186.507812 C 298.1875 217.390625 297.464844 326.203125 220.394531 349.769531 C 200.695312 355.777344 179.570312 354.421875 160.230469 347.371094 Z M 160.230469 347.371094 " fill-opacity="1" fill-rule="nonzero"/><path fill="#ffffff" d="M 214.90625 330.609375 C 204.082031 345.453125 181.738281 346.535156 170.488281 332.007812 C 163.144531 322.542969 162.035156 307.855469 181.265625 285.648438 C 213.347656 248.59375 190.234375 205.484375 175.414062 184.902344 C 174.351562 183.410156 176.292969 181.648438 177.648438 182.890625 C 203.859375 206.660156 260.027344 268.679688 214.90625 330.609375 Z M 214.90625 330.609375 " fill-opacity="1" fill-rule="nonzero"/></svg>