<svg xmlns="http://www.w3.org/2000/svg" xmlns:xlink="http://www.w3.org/1999/xlink" width="5000" zoomAndPan="magnify" viewBox="0 0 3750 3749.999967" height="5000" preserveAspectRatio="xMidYMid meet" version="1.0"><path fill="#7a838b" d="M 3440.902344 1586.3125 L 291.601562 1586.3125 L 291.601562 3685.847656 L 3440.902344 3685.847656 L 3440.902344 1586.3125 " fill-opacity="1" fill-rule="nonzero"/><path fill="#5d6972" d="M 3440.902344 3525.464844 L 2584.320312 2669.113281 L 2664.511719 2588.921875 C 2708.707031 2544.5 2708.707031 2472.738281 2664.511719 2428.542969 C 2708.707031 2472.738281 2780.46875 2472.738281 2824.664062 2428.542969 C 2869.089844 2384.117188 2869.089844 2312.585938 2824.664062 2268.160156 L 2584.320312 2027.816406 C 2540.125 1983.394531 2468.363281 1983.394531 2424.167969 2027.816406 C 2379.746094 2072.011719 2379.746094 2143.773438 2424.167969 2188.199219 C 2379.746094 2143.773438 2307.984375 2143.773438 2263.785156 2188.199219 L 1943.253906 2508.734375 C 1898.828125 2552.929688 1898.828125 2624.691406 1943.253906 2669.113281 C 1898.828125 2624.691406 1827.066406 2624.691406 1782.871094 2669.113281 C 1738.449219 2713.308594 1738.449219 2785.070312 1782.871094 2829.265625 L 2023.214844 3069.609375 C 2067.640625 3114.035156 2139.171875 3114.035156 2183.597656 3069.609375 C 2227.792969 3025.414062 2227.792969 2953.652344 2183.597656 2909.457031 C 2227.792969 2953.652344 2299.554688 2953.652344 2343.976562 2909.457031 L 2424.167969 2829.265625 L 3280.519531 3685.847656 L 3440.902344 3685.847656 L 3440.902344 3525.464844 " fill-opacity="1" fill-rule="nonzero"/><path fill="#5d6972" d="M 3440.902344 1586.3125 L 291.601562 1586.3125 L 291.601562 3685.847656 L 3440.902344 3685.847656 L 3440.902344 3510.886719 L 2391.136719 3510.886719 C 1412.21875 3510.886719 604.390625 2780.058594 482.738281 1834.175781 C 473.851562 1764.691406 528.757812 1702.953125 598.921875 1702.953125 L 3440.902344 1702.953125 L 3440.902344 1586.3125 " fill-opacity="1" fill-rule="nonzero"/><path fill="#a7d0e1" d="M 2157.851562 2169.519531 L 1574.648438 2169.519531 C 1510.179688 2169.519531 1458.007812 2221.6875 1458.007812 2286.160156 L 1458.007812 3685.847656 L 2274.496094 3685.847656 L 2274.496094 2286.160156 C 2274.496094 2221.6875 2222.324219 2169.519531 2157.851562 2169.519531 " fill-opacity="1" fill-rule="nonzero"/><path fill="#80bbce" d="M 1943.253906 2508.734375 C 1898.828125 2552.929688 1898.828125 2624.691406 1943.253906 2669.113281 C 1898.828125 2624.691406 1827.066406 2624.691406 1782.871094 2669.113281 C 1738.449219 2713.308594 1738.449219 2785.070312 1782.871094 2829.265625 L 2023.214844 3069.609375 C 2067.640625 3114.035156 2139.171875 3114.035156 2183.597656 3069.609375 C 2227.792969 3025.414062 2227.792969 2953.652344 2183.597656 2909.457031 C 2208.429688 2934.289062 2241.917969 2944.769531 2274.496094 2941.578125 L 2274.496094 2286.160156 C 2274.496094 2255.859375 2262.648438 2228.75 2243.738281 2208.019531 L 1943.253906 2508.734375 " fill-opacity="1" fill-rule="nonzero"/><path fill="#80bbce" d="M 1458.007812 3269.632812 L 1458.007812 3685.847656 L 2274.496094 3685.847656 L 2274.496094 3507.011719 C 1979.476562 3489.472656 1702.453125 3405.410156 1458.007812 3269.632812 " fill-opacity="1" fill-rule="nonzero"/><path fill="#a7d0e1" d="M 874.804688 2519.441406 L 524.882812 2519.441406 L 524.882812 2169.519531 L 874.804688 2169.519531 L 874.804688 2519.441406 " fill-opacity="1" fill-rule="nonzero"/><path fill="#a7d0e1" d="M 1224.726562 2519.441406 L 874.804688 2519.441406 L 874.804688 2169.519531 L 1224.726562 2169.519531 L 1224.726562 2519.441406 " fill-opacity="1" fill-rule="nonzero"/><path fill="#a7d0e1" d="M 874.804688 2869.363281 L 524.882812 2869.363281 L 524.882812 2519.441406 L 874.804688 2519.441406 L 874.804688 2869.363281 " fill-opacity="1" fill-rule="nonzero"/><path fill="#a7d0e1" d="M 1224.726562 2869.363281 L 874.804688 2869.363281 L 874.804688 2519.441406 L 1224.726562 2519.441406 L 1224.726562 2869.363281 " fill-opacity="1" fill-rule="nonzero"/><path fill="#a7d0e1" d="M 3557.542969 1236.390625 L 174.960938 1236.390625 C 110.488281 1236.390625 58.320312 1288.5625 58.320312 1353.03125 L 58.320312 1469.671875 C 58.320312 1534.144531 110.488281 1586.3125 174.960938 1586.3125 L 3557.542969 1586.3125 C 3622.011719 1586.3125 3674.183594 1534.144531 3674.183594 1469.671875 L 3674.183594 1353.03125 C 3674.183594 1288.5625 3622.011719 1236.390625 3557.542969 1236.390625 " fill-opacity="1" fill-rule="nonzero"/><path fill="#80bbce" d="M 408.242188 1411.351562 C 311.648438 1411.351562 233.28125 1332.984375 233.28125 1236.390625 L 174.960938 1236.390625 C 110.488281 1236.390625 58.320312 1288.5625 58.320312 1353.03125 L 58.320312 1469.671875 C 58.320312 1534.144531 110.488281 1586.3125 174.960938 1586.3125 L 3557.542969 1586.3125 C 3622.011719 1586.3125 3674.183594 1534.144531 3674.183594 1469.671875 L 3674.183594 1411.351562 L 408.242188 1411.351562 " fill-opacity="1" fill-rule="nonzero"/><path fill="#7a838b" d="M 291.601562 1236.390625 L 1866.25 69.984375 L 3440.902344 1236.390625 Z M 291.601562 1236.390625 " fill-opacity="1" fill-rule="nonzero"/><path fill="#5d6972" d="M 1326.105469 640.660156 L 1981.296875 155.414062 L 1866.25 69.984375 L 291.601562 1236.390625 L 3440.902344 1236.390625 L 3204.660156 1061.429688 L 1465.070312 1061.429688 C 1240.21875 1061.429688 1145.449219 774.613281 1326.105469 640.660156 " fill-opacity="1" fill-rule="nonzero"/><path fill="#72aa65" d="M 816.484375 3335.925781 C 787.554688 3335.925781 760.671875 3343.671875 736.75 3355.972656 C 700.070312 3275.554688 619.199219 3219.285156 524.882812 3219.285156 C 430.566406 3219.285156 349.921875 3275.554688 313.015625 3355.972656 C 289.097656 3343.671875 262.214844 3335.925781 233.28125 3335.925781 C 136.6875 3335.925781 58.320312 3414.292969 58.320312 3510.886719 C 58.320312 3607.480469 136.6875 3685.847656 233.28125 3685.847656 L 816.484375 3685.847656 C 913.078125 3685.847656 991.445312 3607.480469 991.445312 3510.886719 C 991.445312 3414.292969 913.078125 3335.925781 816.484375 3335.925781 " fill-opacity="1" fill-rule="nonzero"/><path fill="#f8c460" d="M 2391.136719 3452.566406 L 1691.289062 3452.566406 C 1562.347656 3452.566406 1458.007812 3557.132812 1458.007812 3685.847656 L 2624.417969 3685.847656 C 2624.417969 3557.132812 2520.078125 3452.566406 2391.136719 3452.566406 " fill-opacity="1" fill-rule="nonzero"/><path fill="#faaf42" d="M 1866.25 3452.566406 L 1691.289062 3452.566406 C 1562.347656 3452.566406 1458.007812 3557.132812 1458.007812 3685.847656 L 1632.96875 3685.847656 C 1632.96875 3557.132812 1737.308594 3452.566406 1866.25 3452.566406 " fill-opacity="1" fill-rule="nonzero"/><path fill="#f8c460" d="M 2274.496094 3219.285156 L 1807.929688 3219.285156 C 1743.460938 3219.285156 1691.289062 3271.453125 1691.289062 3335.925781 L 1691.289062 3452.566406 L 2391.136719 3452.566406 L 2391.136719 3335.925781 C 2391.136719 3271.453125 2338.964844 3219.285156 2274.496094 3219.285156 " fill-opacity="1" fill-rule="nonzero"/><path fill="#faaf42" d="M 1982.890625 3219.285156 L 1807.929688 3219.285156 C 1743.460938 3219.285156 1691.289062 3271.453125 1691.289062 3335.925781 L 1691.289062 3452.566406 L 1866.25 3452.566406 L 1866.25 3335.925781 C 1866.25 3271.453125 1918.421875 3219.285156 1982.890625 3219.285156 " fill-opacity="1" fill-rule="nonzero"/><path fill="#f8c460" d="M 2839.472656 2530.601562 L 2518.9375 2851.136719 C 2474.515625 2895.332031 2402.753906 2895.332031 2358.558594 2851.136719 L 2118.214844 2610.792969 C 2073.789062 2566.371094 2073.789062 2494.609375 2118.214844 2450.414062 L 2438.746094 2129.878906 C 2482.945312 2085.453125 2554.707031 2085.453125 2599.128906 2129.878906 L 2839.472656 2370.222656 C 2883.667969 2414.417969 2883.667969 2486.179688 2839.472656 2530.601562 " fill-opacity="1" fill-rule="nonzero"/><path fill="#faaf42" d="M 2832.183594 2362.933594 L 2686.152344 2508.960938 C 2549.464844 2645.421875 2327.800781 2645.421875 2191.34375 2508.960938 L 2125.503906 2443.121094 L 2118.214844 2450.414062 C 2073.789062 2494.609375 2073.789062 2566.371094 2117.984375 2610.566406 L 2358.558594 2851.136719 C 2402.753906 2895.332031 2474.515625 2895.332031 2518.9375 2851.136719 L 2839.472656 2530.601562 C 2883.667969 2486.179688 2883.667969 2414.417969 2839.472656 2370.222656 L 2832.183594 2362.933594 " fill-opacity="1" fill-rule="nonzero"/><path fill="#ffd3b6" d="M 2999.625 2370.222656 C 2955.429688 2414.417969 2883.667969 2414.417969 2839.472656 2370.222656 L 2599.128906 2129.878906 C 2554.707031 2085.453125 2554.707031 2013.691406 2599.128906 1969.496094 C 2643.324219 1925.074219 2715.085938 1925.074219 2759.28125 1969.496094 L 2999.625 2209.839844 C 3044.050781 2254.265625 3044.050781 2325.796875 2999.625 2370.222656 " fill-opacity="1" fill-rule="nonzero"/><path fill="#f9b995" d="M 2999.625 2209.839844 L 2912.144531 2122.359375 C 2956.570312 2166.785156 2956.570312 2238.316406 2912.144531 2282.742188 C 2867.949219 2326.9375 2796.1875 2326.9375 2751.992188 2282.742188 L 2839.472656 2370.222656 C 2883.667969 2414.417969 2955.429688 2414.417969 2999.625 2370.222656 C 3044.050781 2325.796875 3044.050781 2254.265625 2999.625 2209.839844 " fill-opacity="1" fill-rule="nonzero"/><path fill="#ffd3b6" d="M 2358.558594 3011.289062 C 2314.132812 3055.714844 2242.601562 3055.714844 2198.175781 3011.289062 L 1957.832031 2770.945312 C 1913.410156 2726.75 1913.410156 2654.988281 1957.832031 2610.792969 C 2002.027344 2566.371094 2073.789062 2566.371094 2118.214844 2610.792969 L 2358.558594 2851.136719 C 2402.753906 2895.332031 2402.753906 2967.09375 2358.558594 3011.289062 " fill-opacity="1" fill-rule="nonzero"/><path fill="#f9b995" d="M 2358.558594 2851.136719 L 2271.078125 2763.65625 C 2315.273438 2807.851562 2315.273438 2879.613281 2271.078125 2923.808594 C 2226.652344 2968.234375 2155.121094 2968.234375 2110.695312 2923.808594 L 2198.175781 3011.289062 C 2242.601562 3055.714844 2314.132812 3055.714844 2358.558594 3011.289062 C 2402.753906 2967.09375 2402.753906 2895.332031 2358.558594 2851.136719 " fill-opacity="1" fill-rule="nonzero"/><path fill="#ffd3b6" d="M 3640.921875 3652.585938 C 3596.726562 3696.78125 3524.964844 3696.78125 3480.542969 3652.585938 L 2599.128906 2770.945312 L 2759.28125 2610.792969 L 3640.921875 3492.207031 C 3685.347656 3536.628906 3685.347656 3608.390625 3640.921875 3652.585938 " fill-opacity="1" fill-rule="nonzero"/><path fill="#f9b995" d="M 2686.609375 2858.425781 L 2846.761719 2698.273438 L 2759.28125 2610.792969 L 2599.128906 2770.945312 L 2686.609375 2858.425781 " fill-opacity="1" fill-rule="nonzero"/><path fill="#80bbce" d="M 707.363281 2519.441406 L 524.882812 2519.441406 L 524.882812 2169.519531 L 556.320312 2169.519531 C 595.503906 2291.855469 646.308594 2409.179688 707.363281 2519.441406 " fill-opacity="1" fill-rule="nonzero"/><path fill="#80bbce" d="M 874.804688 2772.542969 L 874.804688 2869.363281 L 524.882812 2869.363281 L 524.882812 2519.441406 L 707.363281 2519.441406 C 756.34375 2608.058594 813.066406 2692.578125 874.804688 2772.542969 " fill-opacity="1" fill-rule="nonzero"/><path fill="#80bbce" d="M 874.804688 2770.71875 L 874.804688 2869.363281 L 957.046875 2869.363281 C 928.339844 2837.46875 901.230469 2804.433594 874.804688 2770.71875 " fill-opacity="1" fill-rule="nonzero"/><path fill="#599149" d="M 233.28125 3335.925781 C 136.6875 3335.925781 58.320312 3414.292969 58.320312 3510.886719 C 58.320312 3607.480469 136.6875 3685.847656 233.28125 3685.847656 L 816.484375 3685.847656 C 913.078125 3685.847656 991.445312 3607.480469 991.445312 3510.886719 L 408.242188 3510.886719 C 311.648438 3510.886719 233.28125 3432.519531 233.28125 3335.925781 " fill-opacity="1" fill-rule="nonzero"/><path fill="#000000" d="M 583.203125 2227.839844 L 816.484375 2227.839844 L 816.484375 2461.121094 L 583.203125 2461.121094 Z M 1166.40625 2461.121094 L 933.125 2461.121094 L 933.125 2227.839844 L 1166.40625 2227.839844 Z M 1166.40625 2811.042969 L 933.125 2811.042969 L 933.125 2577.761719 L 1166.40625 2577.761719 Z M 583.203125 2577.761719 L 816.484375 2577.761719 L 816.484375 2811.042969 L 583.203125 2811.042969 Z M 874.804688 2927.683594 L 1224.726562 2927.683594 C 1256.847656 2927.683594 1283.046875 2901.484375 1283.046875 2869.363281 L 1283.046875 2169.519531 C 1283.046875 2137.394531 1256.847656 2111.199219 1224.726562 2111.199219 L 524.882812 2111.199219 C 492.761719 2111.199219 466.5625 2137.394531 466.5625 2169.519531 L 466.5625 2869.363281 C 466.5625 2901.484375 492.761719 2927.683594 524.882812 2927.683594 L 874.804688 2927.683594 " fill-opacity="1" fill-rule="nonzero"/><path fill="#000000" d="M 3599.6875 3611.351562 C 3578.273438 3632.996094 3543.417969 3632.765625 3522.003906 3611.351562 L 2681.371094 2770.945312 L 2759.28125 2693.035156 L 3599.6875 3533.441406 C 3621.101562 3555.082031 3621.332031 3589.9375 3599.6875 3611.351562 Z M 2399.792969 2809.902344 L 2159.449219 2569.332031 C 2148.96875 2559.078125 2143.046875 2545.183594 2143.046875 2530.601562 C 2143.046875 2515.796875 2148.96875 2502.125 2159.449219 2491.648438 L 2479.980469 2171.113281 C 2490.460938 2160.632812 2504.128906 2154.710938 2518.9375 2154.710938 C 2533.519531 2154.710938 2547.414062 2160.632812 2557.667969 2171.113281 L 2798.238281 2411.457031 C 2819.652344 2432.871094 2819.652344 2467.726562 2798.238281 2489.140625 L 2477.476562 2809.902344 C 2456.0625 2831.316406 2421.207031 2831.316406 2399.792969 2809.902344 Z M 2317.324219 2970.054688 C 2296.59375 2991.015625 2260.371094 2991.015625 2239.410156 2970.054688 L 1999.066406 2729.710938 C 1977.652344 2708.296875 1977.652344 2673.441406 1999.066406 2652.027344 C 2009.546875 2641.546875 2023.214844 2635.851562 2038.023438 2635.851562 C 2052.601562 2635.851562 2066.5 2641.546875 2076.75 2652.027344 L 2317.324219 2892.371094 C 2338.738281 2913.785156 2338.738281 2948.640625 2317.324219 2970.054688 Z M 2640.363281 2010.730469 C 2650.613281 2000.253906 2664.511719 1994.558594 2679.089844 1994.558594 C 2693.898438 1994.558594 2707.570312 2000.253906 2718.046875 2010.730469 L 2958.390625 2251.304688 C 2968.871094 2261.554688 2974.566406 2275.453125 2974.566406 2290.03125 C 2974.566406 2304.839844 2968.871094 2318.507812 2958.390625 2328.988281 C 2936.976562 2350.402344 2902.121094 2350.402344 2880.707031 2328.988281 L 2640.363281 2088.417969 C 2629.882812 2078.164062 2624.1875 2064.269531 2624.1875 2049.6875 C 2624.1875 2034.878906 2629.882812 2021.210938 2640.363281 2010.730469 Z M 468.386719 1178.070312 L 1866.25 142.65625 L 3264.117188 1178.070312 Z M 3557.542969 1644.632812 C 3654.136719 1644.632812 3732.503906 1566.265625 3732.503906 1469.671875 L 3732.503906 1353.03125 C 3732.503906 1256.441406 3654.136719 1178.070312 3557.542969 1178.070312 L 3460.265625 1178.070312 L 1900.878906 23.054688 C 1880.148438 7.792969 1852.355469 7.792969 1831.625 23.054688 L 272.238281 1178.070312 L 174.960938 1178.070312 C 78.367188 1178.070312 0 1256.441406 0 1353.03125 L 0 1469.671875 C 0 1566.265625 78.367188 1644.632812 174.960938 1644.632812 L 233.28125 1644.632812 L 233.28125 3102.644531 C 233.28125 3134.765625 259.480469 3160.964844 291.601562 3160.964844 C 323.722656 3160.964844 349.921875 3134.765625 349.921875 3102.644531 L 349.921875 1644.632812 L 2741.058594 1644.632812 C 2773.179688 1644.632812 2799.378906 1618.4375 2799.378906 1586.3125 C 2799.378906 1554.191406 2773.179688 1527.992188 2741.058594 1527.992188 L 174.960938 1527.992188 C 142.839844 1527.992188 116.640625 1501.796875 116.640625 1469.671875 L 116.640625 1353.03125 C 116.640625 1320.910156 142.839844 1294.710938 174.960938 1294.710938 L 3557.542969 1294.710938 C 3589.664062 1294.710938 3615.863281 1320.910156 3615.863281 1353.03125 L 3615.863281 1469.671875 C 3615.863281 1501.796875 3589.664062 1527.992188 3557.542969 1527.992188 L 2974.339844 1527.992188 C 2942.21875 1527.992188 2916.019531 1554.191406 2916.019531 1586.3125 C 2916.019531 1618.4375 2942.21875 1644.632812 2974.339844 1644.632812 L 3382.582031 1644.632812 L 3382.582031 3151.394531 L 2841.75 2610.792969 L 2880.707031 2571.835938 C 2911.460938 2540.855469 2927.636719 2500.988281 2929.914062 2460.664062 C 2970.238281 2458.15625 3010.105469 2442.210938 3041.089844 2411.457031 C 3073.4375 2379.105469 3091.207031 2335.820312 3091.207031 2290.03125 C 3091.207031 2244.242188 3073.4375 2200.957031 3041.089844 2168.605469 L 2800.515625 1928.261719 C 2735.589844 1863.335938 2622.59375 1863.335938 2557.667969 1928.261719 C 2527.367188 1958.5625 2510.507812 1998.429688 2508.460938 2040.804688 C 2467.453125 2043.082031 2427.355469 2058.574219 2397.515625 2088.417969 L 2076.75 2408.949219 C 2046.453125 2439.476562 2029.59375 2479.117188 2027.316406 2521.71875 C 1986.539062 2524.222656 1946.441406 2539.488281 1916.597656 2569.332031 C 1849.621094 2636.308594 1849.621094 2745.203125 1916.597656 2812.179688 L 2156.941406 3052.753906 C 2189.292969 3085.101562 2232.578125 3102.871094 2278.367188 3102.871094 C 2324.15625 3102.871094 2367.441406 3085.101562 2399.792969 3052.753906 C 2430.546875 3021.769531 2446.722656 2981.902344 2449 2941.578125 C 2489.324219 2939.074219 2529.191406 2923.125 2560.171875 2892.371094 L 2599.128906 2853.414062 L 3439.308594 3694.046875 C 3472.796875 3727.308594 3516.761719 3743.941406 3560.730469 3743.941406 C 3604.699219 3743.941406 3648.894531 3727.308594 3682.15625 3693.820312 C 3749.132812 3626.84375 3749.132812 3518.175781 3682.15625 3451.199219 L 3499.222656 3268.035156 L 3499.222656 1644.632812 L 3557.542969 1644.632812 " fill-opacity="1" fill-rule="nonzero"/><path fill="#000000" d="M 1526.351562 3627.527344 C 1550.5 3559.636719 1615.199219 3510.886719 1691.289062 3510.886719 L 2391.136719 3510.886719 C 2467.226562 3510.886719 2531.925781 3559.636719 2556.070312 3627.527344 Z M 233.28125 3627.527344 C 169.039062 3627.527344 116.640625 3575.128906 116.640625 3510.886719 C 116.640625 3446.644531 169.039062 3394.246094 233.28125 3394.246094 C 251.050781 3394.246094 268.820312 3398.800781 286.363281 3407.914062 C 300.488281 3415.203125 317.117188 3416.34375 332.152344 3411.105469 C 347.1875 3405.863281 359.492188 3394.699219 366.097656 3380.347656 C 394.574219 3317.929688 456.765625 3277.605469 524.882812 3277.605469 C 592.773438 3277.605469 655.191406 3317.929688 683.667969 3380.347656 C 690.277344 3394.699219 702.578125 3405.863281 717.613281 3411.105469 C 732.648438 3416.34375 749.28125 3415.203125 763.40625 3407.914062 C 844.507812 3365.996094 933.125 3428.875 933.125 3510.886719 C 933.125 3575.128906 880.730469 3627.527344 816.484375 3627.527344 Z M 1749.609375 3335.925781 C 1749.609375 3303.804688 1775.808594 3277.605469 1807.929688 3277.605469 L 2274.496094 3277.605469 C 2306.617188 3277.605469 2332.816406 3303.804688 2332.816406 3335.925781 L 2332.816406 3394.246094 L 1749.609375 3394.246094 Z M 3207.621094 3627.527344 L 2676.8125 3627.527344 C 2653.578125 3513.390625 2563.589844 3423.40625 2449.457031 3400.167969 L 2449.457031 3335.925781 C 2449.457031 3239.332031 2371.085938 3160.964844 2274.496094 3160.964844 L 1807.929688 3160.964844 C 1711.339844 3160.964844 1632.96875 3239.332031 1632.96875 3335.925781 L 1632.96875 3400.167969 C 1589.6875 3409.054688 1550.5 3428.191406 1516.328125 3453.933594 L 1516.328125 2286.160156 C 1516.328125 2254.035156 1542.527344 2227.839844 1574.648438 2227.839844 L 2099.53125 2227.839844 C 2131.65625 2227.839844 2157.851562 2201.640625 2157.851562 2169.519531 C 2157.851562 2137.394531 2131.65625 2111.199219 2099.53125 2111.199219 L 1574.648438 2111.199219 C 1478.058594 2111.199219 1399.6875 2189.566406 1399.6875 2286.160156 L 1399.6875 3627.527344 L 1017.417969 3627.527344 C 1037.464844 3593.128906 1049.765625 3553.488281 1049.765625 3510.886719 C 1049.765625 3382.171875 945.199219 3277.605469 816.484375 3277.605469 C 798.261719 3277.605469 780.261719 3279.882812 762.492188 3284.210938 C 708.5 3207.894531 620.109375 3160.964844 524.882812 3160.964844 C 429.65625 3160.964844 341.492188 3207.894531 287.273438 3284.210938 C 269.730469 3279.882812 251.507812 3277.605469 233.28125 3277.605469 C 104.566406 3277.605469 0 3382.171875 0 3510.886719 C 0 3639.601562 104.566406 3744.167969 233.28125 3744.167969 L 3207.621094 3744.167969 C 3239.742188 3744.167969 3265.941406 3717.96875 3265.941406 3685.847656 C 3265.941406 3653.726562 3239.742188 3627.527344 3207.621094 3627.527344 " fill-opacity="1" fill-rule="nonzero"/><path fill="#ffffff" d="M 3440.902344 1411.351562 L 3324.261719 1411.351562 C 3292.140625 1411.351562 3265.941406 1385.15625 3265.941406 1353.03125 C 3265.941406 1320.910156 3292.140625 1294.710938 3324.261719 1294.710938 L 3440.902344 1294.710938 C 3473.023438 1294.710938 3499.222656 1320.910156 3499.222656 1353.03125 C 3499.222656 1385.15625 3473.023438 1411.351562 3440.902344 1411.351562 " fill-opacity="1" fill-rule="nonzero"/><path fill="#ffffff" d="M 1166.40625 2286.160156 C 1166.40625 2318.28125 1140.207031 2344.480469 1108.085938 2344.480469 C 1075.964844 2344.480469 1049.765625 2318.28125 1049.765625 2286.160156 C 1049.765625 2254.035156 1075.964844 2227.839844 1108.085938 2227.839844 C 1140.207031 2227.839844 1166.40625 2254.035156 1166.40625 2286.160156 " fill-opacity="1" fill-rule="nonzero"/><path fill="#ffffff" d="M 2449.457031 2344.480469 C 2434.417969 2344.480469 2419.613281 2338.785156 2408.222656 2327.394531 C 2385.441406 2304.613281 2385.441406 2267.707031 2408.222656 2244.925781 L 2466.542969 2186.605469 C 2489.324219 2163.824219 2526.230469 2163.824219 2549.011719 2186.605469 C 2571.792969 2209.386719 2571.792969 2246.292969 2549.011719 2269.074219 L 2490.691406 2327.394531 C 2479.300781 2338.785156 2464.492188 2344.480469 2449.457031 2344.480469 " fill-opacity="1" fill-rule="nonzero"/></svg>